<?xml version="1.0" standalone="no"?>
<!DOCTYPE svg PUBLIC "-//W3C//DTD SVG 20010904//EN"
 "http://www.w3.org/TR/2001/REC-SVG-20010904/DTD/svg10.dtd">
<svg version="1.0" xmlns="http://www.w3.org/2000/svg"
 width="332.000000pt" height="72.000000pt" viewBox="0 0 332.000000 72.000000"
 preserveAspectRatio="xMidYMid meet">
<metadata>
Created by potrace 1.15, written by Peter Selinger 2001-2017
</metadata>
<g transform="translate(0.000000,72.000000) scale(0.100000,-0.100000)"
fill="#000000" stroke="none">
<path d="M162 567 c-56 -56 -102 -108 -102 -115 0 -6 9 -12 19 -12 25 0 109
-57 174 -119 69 -65 106 -95 142 -115 l30 -16 -40 6 c-59 10 -93 26 -170 84
-78 58 -115 77 -160 80 -52 4 -55 2 -55 -36 0 -32 12 -48 133 -170 l133 -134
65 0 64 0 112 113 c62 61 115 115 119 119 3 3 -23 20 -57 38 -35 17 -93 60
-129 95 -93 90 -124 114 -167 130 l-38 14 45 -6 c65 -8 119 -34 197 -94 67
-52 102 -70 156 -83 25 -6 27 -4 27 26 0 29 -17 50 -130 166 l-130 132 -68 0
-67 0 -103 -103z"/>
<path d="M2857 593 c-4 -3 -7 -35 -7 -71 0 -57 -2 -63 -17 -57 -69 27 -143 5
-176 -53 -27 -47 -34 -142 -13 -195 27 -70 57 -92 124 -90 31 0 85 1 120 2
l62 0 0 236 0 235 -43 0 c-24 0 -47 -3 -50 -7z m-23 -215 c10 -14 16 -44 16
-81 0 -48 -4 -62 -24 -82 -26 -26 -60 -24 -75 4 -25 48 -18 154 11 172 24 15
57 9 72 -13z"/>
<path d="M790 360 l0 -231 153 3 152 3 3 28 c6 49 -11 57 -114 57 l-94 0 -2
183 -3 182 -47 3 -48 3 0 -231z"/>
<path d="M1215 471 c-56 -14 -76 -30 -73 -58 5 -39 31 -51 67 -30 40 23 87 22
101 -2 15 -28 15 -28 -37 -36 -102 -15 -153 -57 -153 -126 0 -78 80 -120 163
-86 21 9 37 12 37 6 0 -6 20 -9 48 -7 l47 3 3 117 c3 130 -8 175 -51 203 -29
18 -109 27 -152 16z"/>
<path d="M1860 473 c-39 -8 -81 -43 -96 -79 -20 -47 -18 -151 4 -193 30 -60
63 -76 152 -76 64 0 84 4 107 21 41 31 41 51 -1 71 -34 16 -37 16 -56 -2 -29
-26 -79 -24 -102 4 -10 13 -18 27 -18 32 0 5 49 9 109 9 61 0 113 4 116 10 11
18 -8 111 -29 143 -12 18 -33 38 -48 45 -31 14 -103 22 -138 15z"/>
<path d="M2193 469 c-43 -13 -70 -49 -83 -115 -16 -74 2 -157 40 -196 25 -24
36 -28 87 -28 33 0 64 5 71 12 9 9 12 6 12 -14 0 -44 -26 -60 -84 -55 -28 2
-60 8 -72 11 -17 6 -23 2 -34 -24 -19 -47 -5 -55 108 -58 84 -3 102 0 130 18
18 11 37 32 42 46 6 14 10 111 10 215 l0 190 -62 -2 c-35 -1 -79 1 -98 4 -19
3 -49 2 -67 -4z m111 -91 c10 -14 16 -44 16 -78 0 -64 -20 -100 -55 -100 -35
0 -55 36 -55 100 0 64 20 100 55 100 13 0 31 -10 39 -22z"/>
<path d="M3093 470 c-89 -28 -128 -167 -77 -276 24 -51 65 -69 154 -69 82 0
130 21 130 56 0 28 -47 56 -69 41 -35 -25 -61 -32 -88 -21 -15 6 -31 16 -35
22 -20 32 -8 36 100 39 l107 3 3 50 c3 61 -21 112 -63 137 -38 21 -120 30
-162 18z"/>
<path d="M1440 448 c0 -13 22 -88 48 -168 l47 -145 55 0 54 0 48 150 c26 83
48 158 48 168 0 15 -7 18 -42 15 l-43 -3 -27 -80 c-15 -44 -29 -89 -33 -100
-4 -14 -16 11 -38 80 l-33 100 -42 3 c-38 3 -42 1 -42 -20z"/>
</g>
</svg>
